<?xml version="1.0" encoding="UTF-8" standalone="no"?>
<!-- Created with Inkscape (http://www.inkscape.org/) -->

<svg
   xmlns:dc="http://purl.org/dc/elements/1.1/"
   xmlns:cc="http://creativecommons.org/ns#"
   xmlns:rdf="http://www.w3.org/1999/02/22-rdf-syntax-ns#"
   xmlns:svg="http://www.w3.org/2000/svg"
   xmlns="http://www.w3.org/2000/svg"
   xmlns:sodipodi="http://sodipodi.sourceforge.net/DTD/sodipodi-0.dtd"
   xmlns:inkscape="http://www.inkscape.org/namespaces/inkscape"
   version="1.1"
   width="200"
   height="200"
   id="svg2"
   inkscape:version="0.48.3.1 r9886"
   sodipodi:docname="arrow_tmp.svg">
  <sodipodi:namedview
     pagecolor="#ffffff"
     bordercolor="#666666"
     borderopacity="1"
     objecttolerance="10"
     gridtolerance="10"
     guidetolerance="10"
     inkscape:pageopacity="0"
     inkscape:pageshadow="2"
     inkscape:window-width="1325"
     inkscape:window-height="746"
     id="namedview14"
     showgrid="false"
     inkscape:zoom="1.18"
     inkscape:cx="100"
     inkscape:cy="100"
     inkscape:window-x="41"
     inkscape:window-y="0"
     inkscape:window-maximized="1"
     inkscape:current-layer="svg2" />
  <defs
     id="defs4">
    <filter
       x="-0.24596006"
       y="-0.24657804"
       width="1.4919201"
       height="1.4931561"
       color-interpolation-filters="sRGB"
       id="filter3788">
      <feGaussianBlur
         stdDeviation="20.653002"
         id="feGaussianBlur3790" />
    </filter>
  </defs>
  <metadata
     id="metadata7">
    <rdf:RDF>
      <cc:Work
         rdf:about="">
        <dc:format>image/svg+xml</dc:format>
        <dc:type
           rdf:resource="http://purl.org/dc/dcmitype/StillImage" />
        <dc:title />
      </cc:Work>
    </rdf:RDF>
  </metadata>
  <g
     transform="translate(0,-852.36218)"
     id="layer1">
    <rect
       width="201.52544"
       height="201.02036"
       x="0"
       y="-0.010204085"
       transform="translate(0,852.36218)"
       id="rect2985"
       style="fill:#ffffff;fill-opacity:0;fill-rule:evenodd;stroke:none" />
  </g>
  <g
     id="layer2">
    <text
       x="52.810719"
       y="152.98798"
       id="text2988"
       xml:space="preserve"
       style="font-size:144px;font-style:normal;font-variant:normal;font-weight:normal;font-stretch:normal;line-height:125%;letter-spacing:0px;word-spacing:0px;fill:#000000;fill-opacity:1;stroke:none;font-family:FreeSans;-inkscape-font-specification:FreeSans"><tspan
         x="52.810719"
         y="152.98798"
         id="tspan2990"
         style="font-weight:600;-inkscape-font-specification:FreeSans Semi-Bold">A</tspan></text>
  </g>
  <rect
     width="18.644066"
     height="46.610172"
     x="89.830513"
     y="153.81355"
     id="rect2989-5"
     style="fill:#0000ff;fill-opacity:1;fill-rule:evenodd;stroke:none" />
  <path
     style="fill:#2a7fff;fill-opacity:1;fill-rule:evenodd;stroke:none"
     d="M 9.5100215,24.218794 -6.6695405,8.039232 -0.07786746,1.4475582 6.5138095,-5.1441181 22.693373,11.035444 l 16.17956,16.179562 -6.59168,6.591676 -6.59167,6.591674 L 9.5100215,24.218794 z"
     id="path2991"
     inkscape:connector-curvature="0" />
  <path
     style="fill:#2a7fff;fill-opacity:1;fill-rule:evenodd;stroke:none"
     d="m 89.830508,176.94915 0,-22.88135 9.322034,0 9.322038,0 0,22.88135 0,22.88136 -9.322038,0 -9.322034,0 0,-22.88136 z"
     id="path2993"
     inkscape:connector-curvature="0" />
  <path
     style="fill:#2a7fff;fill-opacity:1;fill-rule:evenodd;stroke:none"
     d="m 23.728819,86.440675 22.88135,0 0,9.322034 0,9.322041 -22.88135,0 -22.88136046,0 0,-9.322041 0,-9.322034 22.88136046,0 z"
     id="path2993-0"
     inkscape:connector-curvature="0" />
  <path
     style="fill:#2a7fff;fill-opacity:1;fill-rule:evenodd;stroke:none"
     d="m 179.66102,86.440675 22.88135,0 0,9.322034 0,9.322041 -22.88135,0 -22.88136,0 0,-9.322041 0,-9.322034 22.88136,0 z"
     id="path2993-0-7"
     inkscape:connector-curvature="0" />
  <path
     style="fill:#2a7fff;fill-opacity:1;fill-rule:evenodd;stroke:none"
     d="m 88.135591,23.728805 0,-22.88134923 9.322034,0 9.322035,0 0,22.88134923 0,22.88136 -9.322035,0 -9.322034,0 0,-22.88136 z"
     id="path2993-5"
     inkscape:connector-curvature="0" />
  <path
     style="fill:#2a7fff;fill-opacity:1;fill-rule:evenodd;stroke:none"
     d="m 176.45917,190.48998 -16.17956,-16.17956 6.59167,-6.59168 6.59168,-6.59167 16.17956,16.17956 16.17956,16.17956 -6.59168,6.59168 -6.59167,6.59167 -16.17956,-16.17956 z"
     id="path2991-7"
     inkscape:connector-curvature="0" />
  <path
     style="fill:#2a7fff;fill-opacity:1;fill-rule:evenodd;stroke:none"
     d="m 179.00154,12.052393 16.17956,-16.17956 6.59168,6.59167 6.59167,6.59168 -16.17956,16.17956 -16.17956,16.17956 -6.59168,-6.59168 -6.59167,-6.59167 16.17956,-16.17956 z"
     id="path2991-70"
     inkscape:connector-curvature="0" />
  <path
     style="fill:#2a7fff;fill-opacity:1;fill-rule:evenodd;stroke:none"
     d="m 9.5100224,179.00154 16.1795596,-16.17956 6.59168,6.59167 6.59167,6.59168 -16.17956,16.17956 -16.1795598,16.17956 -6.59168,-6.59168 -6.59167,-6.59167 16.1795602,-16.17956 z"
     id="path2991-70-8"
     inkscape:connector-curvature="0" />
</svg>
